<mxfile host="Electron" modified="2024-05-12T13:49:35.143Z" agent="Mozilla/5.0 (X11; Linux x86_64) AppleWebKit/537.36 (KHTML, like Gecko) draw.io/22.1.16 Chrome/120.0.6099.109 Electron/28.1.0 Safari/537.36" etag="6S_OHKv_l844hUXGblTt" version="22.1.16" type="device">
  <diagram id="C5RBs43oDa-KdzZeNtuy" name="Page-1">
    <mxGraphModel dx="465" dy="234" grid="1" gridSize="10" guides="1" tooltips="1" connect="1" arrows="1" fold="1" page="1" pageScale="1" pageWidth="1169" pageHeight="1654" math="0" shadow="0">
      <root>
        <mxCell id="WIyWlLk6GJQsqaUBKTNV-0" />
        <mxCell id="WIyWlLk6GJQsqaUBKTNV-1" parent="WIyWlLk6GJQsqaUBKTNV-0" />
        <mxCell id="LebVT-fsiNY8ZmQKpkG3-3" style="edgeStyle=orthogonalEdgeStyle;rounded=0;orthogonalLoop=1;jettySize=auto;html=1;exitX=0.5;exitY=1;exitDx=0;exitDy=0;entryX=0.5;entryY=0;entryDx=0;entryDy=0;" parent="WIyWlLk6GJQsqaUBKTNV-1" target="LebVT-fsiNY8ZmQKpkG3-1" edge="1">
          <mxGeometry relative="1" as="geometry">
            <mxPoint x="328.9100000000001" y="150" as="sourcePoint" />
          </mxGeometry>
        </mxCell>
        <mxCell id="LebVT-fsiNY8ZmQKpkG3-7" style="edgeStyle=orthogonalEdgeStyle;rounded=0;orthogonalLoop=1;jettySize=auto;html=1;exitX=0.5;exitY=1;exitDx=0;exitDy=0;entryX=0.5;entryY=0;entryDx=0;entryDy=0;" parent="WIyWlLk6GJQsqaUBKTNV-1" source="WIyWlLk6GJQsqaUBKTNV-6" target="LebVT-fsiNY8ZmQKpkG3-5" edge="1">
          <mxGeometry relative="1" as="geometry" />
        </mxCell>
        <mxCell id="LebVT-fsiNY8ZmQKpkG3-87" style="edgeStyle=orthogonalEdgeStyle;rounded=0;orthogonalLoop=1;jettySize=auto;html=1;exitX=0;exitY=0.5;exitDx=0;exitDy=0;entryX=0;entryY=0.5;entryDx=0;entryDy=0;" parent="WIyWlLk6GJQsqaUBKTNV-1" source="WIyWlLk6GJQsqaUBKTNV-6" target="LebVT-fsiNY8ZmQKpkG3-88" edge="1">
          <mxGeometry relative="1" as="geometry">
            <mxPoint x="100.00000000000011" y="1623.75" as="targetPoint" />
          </mxGeometry>
        </mxCell>
        <mxCell id="WIyWlLk6GJQsqaUBKTNV-6" value="&lt;br&gt;next ripartition &lt;br&gt;in ripartitions&amp;nbsp;&lt;br&gt;?" style="rhombus;whiteSpace=wrap;html=1;shadow=0;fontFamily=Helvetica;fontSize=12;align=center;strokeWidth=1;spacing=6;spacingTop=-4;" parent="WIyWlLk6GJQsqaUBKTNV-1" vertex="1">
          <mxGeometry x="273.90999999999997" y="260" width="110" height="100" as="geometry" />
        </mxCell>
        <mxCell id="LebVT-fsiNY8ZmQKpkG3-4" style="edgeStyle=orthogonalEdgeStyle;rounded=0;orthogonalLoop=1;jettySize=auto;html=1;exitX=0.5;exitY=1;exitDx=0;exitDy=0;entryX=0.5;entryY=0;entryDx=0;entryDy=0;" parent="WIyWlLk6GJQsqaUBKTNV-1" source="LebVT-fsiNY8ZmQKpkG3-1" target="WIyWlLk6GJQsqaUBKTNV-6" edge="1">
          <mxGeometry relative="1" as="geometry" />
        </mxCell>
        <mxCell id="LebVT-fsiNY8ZmQKpkG3-1" value="next ripartition = first ripartition" style="rounded=1;whiteSpace=wrap;html=1;absoluteArcSize=1;arcSize=14;strokeWidth=2;" parent="WIyWlLk6GJQsqaUBKTNV-1" vertex="1">
          <mxGeometry x="238.91" y="200" width="180" height="30" as="geometry" />
        </mxCell>
        <mxCell id="LebVT-fsiNY8ZmQKpkG3-9" style="edgeStyle=orthogonalEdgeStyle;rounded=0;orthogonalLoop=1;jettySize=auto;html=1;exitX=0.5;exitY=1;exitDx=0;exitDy=0;" parent="WIyWlLk6GJQsqaUBKTNV-1" source="LebVT-fsiNY8ZmQKpkG3-5" edge="1">
          <mxGeometry relative="1" as="geometry">
            <mxPoint x="328.90999999999997" y="520" as="targetPoint" />
          </mxGeometry>
        </mxCell>
        <mxCell id="LebVT-fsiNY8ZmQKpkG3-5" value="Set i = 0" style="rounded=1;whiteSpace=wrap;html=1;absoluteArcSize=1;arcSize=14;strokeWidth=2;" parent="WIyWlLk6GJQsqaUBKTNV-1" vertex="1">
          <mxGeometry x="273.90999999999997" y="400" width="110" height="30" as="geometry" />
        </mxCell>
        <mxCell id="LebVT-fsiNY8ZmQKpkG3-8" value="&lt;span style=&quot;color: rgb(0, 0, 0); font-family: Helvetica; font-size: 11px; font-style: normal; font-variant-ligatures: normal; font-variant-caps: normal; font-weight: 400; letter-spacing: normal; orphans: 2; text-align: center; text-indent: 0px; text-transform: none; widows: 2; word-spacing: 0px; -webkit-text-stroke-width: 0px; background-color: rgb(251, 251, 251); text-decoration-thickness: initial; text-decoration-style: initial; text-decoration-color: initial; float: none; display: inline !important;&quot;&gt;Yes&lt;/span&gt;" style="text;whiteSpace=wrap;html=1;" parent="WIyWlLk6GJQsqaUBKTNV-1" vertex="1">
          <mxGeometry x="333.90999999999997" y="360" width="50" height="40" as="geometry" />
        </mxCell>
        <mxCell id="LebVT-fsiNY8ZmQKpkG3-11" style="edgeStyle=orthogonalEdgeStyle;rounded=0;orthogonalLoop=1;jettySize=auto;html=1;exitX=0.5;exitY=1;exitDx=0;exitDy=0;" parent="WIyWlLk6GJQsqaUBKTNV-1" source="LebVT-fsiNY8ZmQKpkG3-10" edge="1">
          <mxGeometry relative="1" as="geometry">
            <mxPoint x="328.90999999999997" y="570" as="targetPoint" />
          </mxGeometry>
        </mxCell>
        <mxCell id="LebVT-fsiNY8ZmQKpkG3-36" style="edgeStyle=orthogonalEdgeStyle;rounded=0;orthogonalLoop=1;jettySize=auto;html=1;exitX=1;exitY=0.5;exitDx=0;exitDy=0;entryX=0;entryY=0.5;entryDx=0;entryDy=0;" parent="WIyWlLk6GJQsqaUBKTNV-1" source="LebVT-fsiNY8ZmQKpkG3-10" target="LebVT-fsiNY8ZmQKpkG3-35" edge="1">
          <mxGeometry relative="1" as="geometry">
            <mxPoint x="673.91" y="400" as="targetPoint" />
            <Array as="points">
              <mxPoint x="483.90999999999997" y="495" />
              <mxPoint x="483.90999999999997" y="415" />
            </Array>
          </mxGeometry>
        </mxCell>
        <mxCell id="LebVT-fsiNY8ZmQKpkG3-10" value="i &amp;lt; trials ?" style="rhombus;whiteSpace=wrap;html=1;shadow=0;fontFamily=Helvetica;fontSize=12;align=center;strokeWidth=1;spacing=6;spacingTop=-4;" parent="WIyWlLk6GJQsqaUBKTNV-1" vertex="1">
          <mxGeometry x="288.90999999999997" y="460" width="80" height="70" as="geometry" />
        </mxCell>
        <mxCell id="LebVT-fsiNY8ZmQKpkG3-12" value="&lt;span style=&quot;color: rgb(0, 0, 0); font-family: Helvetica; font-size: 11px; font-style: normal; font-variant-ligatures: normal; font-variant-caps: normal; font-weight: 400; letter-spacing: normal; orphans: 2; text-align: center; text-indent: 0px; text-transform: none; widows: 2; word-spacing: 0px; -webkit-text-stroke-width: 0px; background-color: rgb(251, 251, 251); text-decoration-thickness: initial; text-decoration-style: initial; text-decoration-color: initial; float: none; display: inline !important;&quot;&gt;Yes&lt;/span&gt;" style="text;whiteSpace=wrap;html=1;" parent="WIyWlLk6GJQsqaUBKTNV-1" vertex="1">
          <mxGeometry x="333.90999999999997" y="530" width="50" height="40" as="geometry" />
        </mxCell>
        <mxCell id="LebVT-fsiNY8ZmQKpkG3-19" style="edgeStyle=orthogonalEdgeStyle;rounded=0;orthogonalLoop=1;jettySize=auto;html=1;exitX=0.5;exitY=1;exitDx=0;exitDy=0;entryX=0.5;entryY=0;entryDx=0;entryDy=0;" parent="WIyWlLk6GJQsqaUBKTNV-1" source="LebVT-fsiNY8ZmQKpkG3-13" target="LebVT-fsiNY8ZmQKpkG3-14" edge="1">
          <mxGeometry relative="1" as="geometry" />
        </mxCell>
        <mxCell id="LebVT-fsiNY8ZmQKpkG3-13" value="Split dataset accordingly to current ripartition and seeds[i] for the first parameter" style="rounded=1;whiteSpace=wrap;html=1;absoluteArcSize=1;arcSize=14;strokeWidth=2;" parent="WIyWlLk6GJQsqaUBKTNV-1" vertex="1">
          <mxGeometry x="246.41" y="570" width="167.5" height="70" as="geometry" />
        </mxCell>
        <mxCell id="LebVT-fsiNY8ZmQKpkG3-17" value="" style="edgeStyle=orthogonalEdgeStyle;rounded=0;orthogonalLoop=1;jettySize=auto;html=1;" parent="WIyWlLk6GJQsqaUBKTNV-1" source="LebVT-fsiNY8ZmQKpkG3-14" target="LebVT-fsiNY8ZmQKpkG3-16" edge="1">
          <mxGeometry relative="1" as="geometry" />
        </mxCell>
        <mxCell id="LebVT-fsiNY8ZmQKpkG3-14" value="Use EA to find best values of alpha/r" style="rounded=1;whiteSpace=wrap;html=1;absoluteArcSize=1;arcSize=14;strokeWidth=2;" parent="WIyWlLk6GJQsqaUBKTNV-1" vertex="1">
          <mxGeometry x="273.90999999999997" y="665" width="110" height="45" as="geometry" />
        </mxCell>
        <mxCell id="LebVT-fsiNY8ZmQKpkG3-16" value="Store MSE1 of the model trained with best alpha" style="rounded=1;whiteSpace=wrap;html=1;absoluteArcSize=1;arcSize=14;strokeWidth=2;" parent="WIyWlLk6GJQsqaUBKTNV-1" vertex="1">
          <mxGeometry x="268.90999999999997" y="740" width="120" height="60" as="geometry" />
        </mxCell>
        <mxCell id="LebVT-fsiNY8ZmQKpkG3-22" style="edgeStyle=orthogonalEdgeStyle;rounded=0;orthogonalLoop=1;jettySize=auto;html=1;exitX=1;exitY=0.5;exitDx=0;exitDy=0;exitPerimeter=0;" parent="WIyWlLk6GJQsqaUBKTNV-1" source="LebVT-fsiNY8ZmQKpkG3-20" edge="1">
          <mxGeometry relative="1" as="geometry">
            <mxPoint x="483.90999999999985" y="894.8620689655172" as="targetPoint" />
          </mxGeometry>
        </mxCell>
        <mxCell id="LebVT-fsiNY8ZmQKpkG3-26" style="edgeStyle=orthogonalEdgeStyle;rounded=0;orthogonalLoop=1;jettySize=auto;html=1;exitX=0.5;exitY=1;exitDx=0;exitDy=0;exitPerimeter=0;" parent="WIyWlLk6GJQsqaUBKTNV-1" source="LebVT-fsiNY8ZmQKpkG3-20" target="LebVT-fsiNY8ZmQKpkG3-28" edge="1">
          <mxGeometry relative="1" as="geometry">
            <mxPoint x="329.15137931034485" y="1030" as="targetPoint" />
          </mxGeometry>
        </mxCell>
        <mxCell id="LebVT-fsiNY8ZmQKpkG3-20" value="Is the last model,&lt;br&gt;&amp;nbsp;the one with &lt;br&gt;minimun MSE&lt;br&gt;&amp;nbsp;among all trials ?" style="strokeWidth=2;html=1;shape=mxgraph.flowchart.decision;whiteSpace=wrap;" parent="WIyWlLk6GJQsqaUBKTNV-1" vertex="1">
          <mxGeometry x="253.91" y="820" width="150" height="150" as="geometry" />
        </mxCell>
        <mxCell id="LebVT-fsiNY8ZmQKpkG3-21" style="edgeStyle=orthogonalEdgeStyle;rounded=0;orthogonalLoop=1;jettySize=auto;html=1;exitX=0.5;exitY=1;exitDx=0;exitDy=0;entryX=0.5;entryY=0;entryDx=0;entryDy=0;entryPerimeter=0;" parent="WIyWlLk6GJQsqaUBKTNV-1" source="LebVT-fsiNY8ZmQKpkG3-16" target="LebVT-fsiNY8ZmQKpkG3-20" edge="1">
          <mxGeometry relative="1" as="geometry" />
        </mxCell>
        <mxCell id="LebVT-fsiNY8ZmQKpkG3-23" value="&lt;span style=&quot;color: rgb(0, 0, 0); font-family: Helvetica; font-size: 11px; font-style: normal; font-variant-ligatures: normal; font-variant-caps: normal; font-weight: 400; letter-spacing: normal; orphans: 2; text-align: center; text-indent: 0px; text-transform: none; widows: 2; word-spacing: 0px; -webkit-text-stroke-width: 0px; background-color: rgb(251, 251, 251); text-decoration-thickness: initial; text-decoration-style: initial; text-decoration-color: initial; float: none; display: inline !important;&quot;&gt;Yes&lt;/span&gt;" style="text;whiteSpace=wrap;html=1;" parent="WIyWlLk6GJQsqaUBKTNV-1" vertex="1">
          <mxGeometry x="403.90999999999997" y="875" width="50" height="40" as="geometry" />
        </mxCell>
        <mxCell id="LebVT-fsiNY8ZmQKpkG3-27" style="edgeStyle=orthogonalEdgeStyle;rounded=0;orthogonalLoop=1;jettySize=auto;html=1;exitX=0.5;exitY=1;exitDx=0;exitDy=0;entryX=0.5;entryY=0;entryDx=0;entryDy=0;" parent="WIyWlLk6GJQsqaUBKTNV-1" source="LebVT-fsiNY8ZmQKpkG3-24" target="LebVT-fsiNY8ZmQKpkG3-28" edge="1">
          <mxGeometry relative="1" as="geometry">
            <mxPoint x="463.90999999999997" y="1000" as="targetPoint" />
            <Array as="points">
              <mxPoint x="493.90999999999997" y="925" />
              <mxPoint x="493.90999999999997" y="980" />
              <mxPoint x="333.90999999999997" y="980" />
              <mxPoint x="333.90999999999997" y="1000" />
              <mxPoint x="328.90999999999997" y="1000" />
            </Array>
          </mxGeometry>
        </mxCell>
        <mxCell id="LebVT-fsiNY8ZmQKpkG3-24" value="Save testset, predictions, alpha1, seed1 for first parameter" style="rounded=1;whiteSpace=wrap;html=1;absoluteArcSize=1;arcSize=14;strokeWidth=2;" parent="WIyWlLk6GJQsqaUBKTNV-1" vertex="1">
          <mxGeometry x="437.90999999999997" y="865" width="120" height="60" as="geometry" />
        </mxCell>
        <mxCell id="LebVT-fsiNY8ZmQKpkG3-31" style="edgeStyle=orthogonalEdgeStyle;rounded=0;orthogonalLoop=1;jettySize=auto;html=1;exitX=0.5;exitY=1;exitDx=0;exitDy=0;entryX=0;entryY=0.5;entryDx=0;entryDy=0;" parent="WIyWlLk6GJQsqaUBKTNV-1" source="LebVT-fsiNY8ZmQKpkG3-28" target="LebVT-fsiNY8ZmQKpkG3-10" edge="1">
          <mxGeometry relative="1" as="geometry">
            <mxPoint x="173.91" y="400" as="targetPoint" />
            <Array as="points">
              <mxPoint x="328.90999999999997" y="1070" />
              <mxPoint x="193.91" y="1070" />
              <mxPoint x="193.91" y="495" />
            </Array>
          </mxGeometry>
        </mxCell>
        <mxCell id="LebVT-fsiNY8ZmQKpkG3-28" value="i++" style="rounded=1;whiteSpace=wrap;html=1;absoluteArcSize=1;arcSize=14;strokeWidth=2;" parent="WIyWlLk6GJQsqaUBKTNV-1" vertex="1">
          <mxGeometry x="273.90999999999997" y="1020" width="110" height="30" as="geometry" />
        </mxCell>
        <mxCell id="LebVT-fsiNY8ZmQKpkG3-29" value="&lt;span style=&quot;color: rgb(0, 0, 0); font-family: Helvetica; font-size: 11px; font-style: normal; font-variant-ligatures: normal; font-variant-caps: normal; font-weight: 400; letter-spacing: normal; orphans: 2; text-align: center; text-indent: 0px; text-transform: none; widows: 2; word-spacing: 0px; -webkit-text-stroke-width: 0px; background-color: rgb(251, 251, 251); text-decoration-thickness: initial; text-decoration-style: initial; text-decoration-color: initial; float: none; display: inline !important;&quot;&gt;No&lt;/span&gt;" style="text;whiteSpace=wrap;html=1;" parent="WIyWlLk6GJQsqaUBKTNV-1" vertex="1">
          <mxGeometry x="303.90999999999997" y="970" width="50" height="40" as="geometry" />
        </mxCell>
        <mxCell id="LebVT-fsiNY8ZmQKpkG3-34" value="&lt;span style=&quot;color: rgb(0, 0, 0); font-family: Helvetica; font-size: 11px; font-style: normal; font-variant-ligatures: normal; font-variant-caps: normal; font-weight: 400; letter-spacing: normal; orphans: 2; text-align: center; text-indent: 0px; text-transform: none; widows: 2; word-spacing: 0px; -webkit-text-stroke-width: 0px; background-color: rgb(251, 251, 251); text-decoration-thickness: initial; text-decoration-style: initial; text-decoration-color: initial; float: none; display: inline !important;&quot;&gt;No&lt;/span&gt;" style="text;whiteSpace=wrap;html=1;" parent="WIyWlLk6GJQsqaUBKTNV-1" vertex="1">
          <mxGeometry x="383.90999999999997" y="470" width="50" height="40" as="geometry" />
        </mxCell>
        <mxCell id="LebVT-fsiNY8ZmQKpkG3-35" value="Set i = 0" style="rounded=1;whiteSpace=wrap;html=1;absoluteArcSize=1;arcSize=14;strokeWidth=2;" parent="WIyWlLk6GJQsqaUBKTNV-1" vertex="1">
          <mxGeometry x="678.91" y="400" width="110" height="30" as="geometry" />
        </mxCell>
        <mxCell id="LebVT-fsiNY8ZmQKpkG3-37" style="edgeStyle=orthogonalEdgeStyle;rounded=0;orthogonalLoop=1;jettySize=auto;html=1;exitX=0.5;exitY=1;exitDx=0;exitDy=0;" parent="WIyWlLk6GJQsqaUBKTNV-1" edge="1">
          <mxGeometry relative="1" as="geometry">
            <mxPoint x="728.91" y="520" as="targetPoint" />
            <mxPoint x="728.91" y="430" as="sourcePoint" />
            <Array as="points">
              <mxPoint x="728.91" y="475" />
              <mxPoint x="729.91" y="520" />
            </Array>
          </mxGeometry>
        </mxCell>
        <mxCell id="LebVT-fsiNY8ZmQKpkG3-39" style="edgeStyle=orthogonalEdgeStyle;rounded=0;orthogonalLoop=1;jettySize=auto;html=1;exitX=0.5;exitY=1;exitDx=0;exitDy=0;" parent="WIyWlLk6GJQsqaUBKTNV-1" source="LebVT-fsiNY8ZmQKpkG3-40" edge="1">
          <mxGeometry relative="1" as="geometry">
            <mxPoint x="728.91" y="570" as="targetPoint" />
          </mxGeometry>
        </mxCell>
        <mxCell id="LebVT-fsiNY8ZmQKpkG3-40" value="i &amp;lt; trials ?" style="rhombus;whiteSpace=wrap;html=1;shadow=0;fontFamily=Helvetica;fontSize=12;align=center;strokeWidth=1;spacing=6;spacingTop=-4;" parent="WIyWlLk6GJQsqaUBKTNV-1" vertex="1">
          <mxGeometry x="688.91" y="460" width="80" height="70" as="geometry" />
        </mxCell>
        <mxCell id="LebVT-fsiNY8ZmQKpkG3-41" value="&lt;span style=&quot;color: rgb(0, 0, 0); font-family: Helvetica; font-size: 11px; font-style: normal; font-variant-ligatures: normal; font-variant-caps: normal; font-weight: 400; letter-spacing: normal; orphans: 2; text-align: center; text-indent: 0px; text-transform: none; widows: 2; word-spacing: 0px; -webkit-text-stroke-width: 0px; background-color: rgb(251, 251, 251); text-decoration-thickness: initial; text-decoration-style: initial; text-decoration-color: initial; float: none; display: inline !important;&quot;&gt;Yes&lt;/span&gt;" style="text;whiteSpace=wrap;html=1;" parent="WIyWlLk6GJQsqaUBKTNV-1" vertex="1">
          <mxGeometry x="733.91" y="530" width="50" height="40" as="geometry" />
        </mxCell>
        <mxCell id="LebVT-fsiNY8ZmQKpkG3-42" style="edgeStyle=orthogonalEdgeStyle;rounded=0;orthogonalLoop=1;jettySize=auto;html=1;exitX=0.5;exitY=1;exitDx=0;exitDy=0;entryX=0.5;entryY=0;entryDx=0;entryDy=0;" parent="WIyWlLk6GJQsqaUBKTNV-1" source="LebVT-fsiNY8ZmQKpkG3-43" target="LebVT-fsiNY8ZmQKpkG3-45" edge="1">
          <mxGeometry relative="1" as="geometry" />
        </mxCell>
        <mxCell id="LebVT-fsiNY8ZmQKpkG3-43" value="Split dataset accordingly to current ripartition and seeds[i] for the second component" style="rounded=1;whiteSpace=wrap;html=1;absoluteArcSize=1;arcSize=14;strokeWidth=2;" parent="WIyWlLk6GJQsqaUBKTNV-1" vertex="1">
          <mxGeometry x="646.41" y="570" width="167.5" height="70" as="geometry" />
        </mxCell>
        <mxCell id="LebVT-fsiNY8ZmQKpkG3-44" value="" style="edgeStyle=orthogonalEdgeStyle;rounded=0;orthogonalLoop=1;jettySize=auto;html=1;" parent="WIyWlLk6GJQsqaUBKTNV-1" source="LebVT-fsiNY8ZmQKpkG3-45" target="LebVT-fsiNY8ZmQKpkG3-46" edge="1">
          <mxGeometry relative="1" as="geometry" />
        </mxCell>
        <mxCell id="LebVT-fsiNY8ZmQKpkG3-45" value="Use EA to find best values of alpha/r" style="rounded=1;whiteSpace=wrap;html=1;absoluteArcSize=1;arcSize=14;strokeWidth=2;" parent="WIyWlLk6GJQsqaUBKTNV-1" vertex="1">
          <mxGeometry x="673.91" y="665" width="110" height="45" as="geometry" />
        </mxCell>
        <mxCell id="LebVT-fsiNY8ZmQKpkG3-46" value="Store MSE2 of the model trained with best alpha" style="rounded=1;whiteSpace=wrap;html=1;absoluteArcSize=1;arcSize=14;strokeWidth=2;" parent="WIyWlLk6GJQsqaUBKTNV-1" vertex="1">
          <mxGeometry x="668.91" y="740" width="120" height="60" as="geometry" />
        </mxCell>
        <mxCell id="LebVT-fsiNY8ZmQKpkG3-47" style="edgeStyle=orthogonalEdgeStyle;rounded=0;orthogonalLoop=1;jettySize=auto;html=1;exitX=1;exitY=0.5;exitDx=0;exitDy=0;exitPerimeter=0;" parent="WIyWlLk6GJQsqaUBKTNV-1" source="LebVT-fsiNY8ZmQKpkG3-49" edge="1">
          <mxGeometry relative="1" as="geometry">
            <mxPoint x="883.9099999999999" y="894.8620689655172" as="targetPoint" />
          </mxGeometry>
        </mxCell>
        <mxCell id="LebVT-fsiNY8ZmQKpkG3-48" style="edgeStyle=orthogonalEdgeStyle;rounded=0;orthogonalLoop=1;jettySize=auto;html=1;exitX=0.5;exitY=1;exitDx=0;exitDy=0;exitPerimeter=0;" parent="WIyWlLk6GJQsqaUBKTNV-1" source="LebVT-fsiNY8ZmQKpkG3-49" target="LebVT-fsiNY8ZmQKpkG3-55" edge="1">
          <mxGeometry relative="1" as="geometry">
            <mxPoint x="729.1513793103449" y="1030" as="targetPoint" />
          </mxGeometry>
        </mxCell>
        <mxCell id="LebVT-fsiNY8ZmQKpkG3-49" value="Is the last model,&lt;br&gt;&amp;nbsp;the one with &lt;br&gt;minimun MSE&lt;br&gt;&amp;nbsp;among all trials ?" style="strokeWidth=2;html=1;shape=mxgraph.flowchart.decision;whiteSpace=wrap;" parent="WIyWlLk6GJQsqaUBKTNV-1" vertex="1">
          <mxGeometry x="653.91" y="820" width="150" height="150" as="geometry" />
        </mxCell>
        <mxCell id="LebVT-fsiNY8ZmQKpkG3-50" style="edgeStyle=orthogonalEdgeStyle;rounded=0;orthogonalLoop=1;jettySize=auto;html=1;exitX=0.5;exitY=1;exitDx=0;exitDy=0;entryX=0.5;entryY=0;entryDx=0;entryDy=0;entryPerimeter=0;" parent="WIyWlLk6GJQsqaUBKTNV-1" source="LebVT-fsiNY8ZmQKpkG3-46" target="LebVT-fsiNY8ZmQKpkG3-49" edge="1">
          <mxGeometry relative="1" as="geometry" />
        </mxCell>
        <mxCell id="LebVT-fsiNY8ZmQKpkG3-51" value="&lt;span style=&quot;color: rgb(0, 0, 0); font-family: Helvetica; font-size: 11px; font-style: normal; font-variant-ligatures: normal; font-variant-caps: normal; font-weight: 400; letter-spacing: normal; orphans: 2; text-align: center; text-indent: 0px; text-transform: none; widows: 2; word-spacing: 0px; -webkit-text-stroke-width: 0px; background-color: rgb(251, 251, 251); text-decoration-thickness: initial; text-decoration-style: initial; text-decoration-color: initial; float: none; display: inline !important;&quot;&gt;Yes&lt;/span&gt;" style="text;whiteSpace=wrap;html=1;" parent="WIyWlLk6GJQsqaUBKTNV-1" vertex="1">
          <mxGeometry x="803.91" y="875" width="50" height="40" as="geometry" />
        </mxCell>
        <mxCell id="LebVT-fsiNY8ZmQKpkG3-52" style="edgeStyle=orthogonalEdgeStyle;rounded=0;orthogonalLoop=1;jettySize=auto;html=1;exitX=0.5;exitY=1;exitDx=0;exitDy=0;entryX=0.5;entryY=0;entryDx=0;entryDy=0;" parent="WIyWlLk6GJQsqaUBKTNV-1" source="LebVT-fsiNY8ZmQKpkG3-53" target="LebVT-fsiNY8ZmQKpkG3-55" edge="1">
          <mxGeometry relative="1" as="geometry">
            <mxPoint x="863.91" y="1000" as="targetPoint" />
            <Array as="points">
              <mxPoint x="893.91" y="925" />
              <mxPoint x="893.91" y="980" />
              <mxPoint x="733.91" y="980" />
              <mxPoint x="733.91" y="1000" />
              <mxPoint x="728.91" y="1000" />
            </Array>
          </mxGeometry>
        </mxCell>
        <mxCell id="LebVT-fsiNY8ZmQKpkG3-53" value="Save testset, predictions, alpha2, seed2 for second parameter" style="rounded=1;whiteSpace=wrap;html=1;absoluteArcSize=1;arcSize=14;strokeWidth=2;" parent="WIyWlLk6GJQsqaUBKTNV-1" vertex="1">
          <mxGeometry x="837.91" y="865" width="120" height="60" as="geometry" />
        </mxCell>
        <mxCell id="LebVT-fsiNY8ZmQKpkG3-54" style="edgeStyle=orthogonalEdgeStyle;rounded=0;orthogonalLoop=1;jettySize=auto;html=1;exitX=0.5;exitY=1;exitDx=0;exitDy=0;entryX=0;entryY=0.5;entryDx=0;entryDy=0;" parent="WIyWlLk6GJQsqaUBKTNV-1" source="LebVT-fsiNY8ZmQKpkG3-55" target="LebVT-fsiNY8ZmQKpkG3-40" edge="1">
          <mxGeometry relative="1" as="geometry">
            <mxPoint x="673.91" y="415" as="targetPoint" />
            <Array as="points">
              <mxPoint x="728.91" y="1070" />
              <mxPoint x="593.91" y="1070" />
              <mxPoint x="593.91" y="495" />
            </Array>
          </mxGeometry>
        </mxCell>
        <mxCell id="LebVT-fsiNY8ZmQKpkG3-55" value="i++" style="rounded=1;whiteSpace=wrap;html=1;absoluteArcSize=1;arcSize=14;strokeWidth=2;" parent="WIyWlLk6GJQsqaUBKTNV-1" vertex="1">
          <mxGeometry x="673.91" y="1020" width="110" height="30" as="geometry" />
        </mxCell>
        <mxCell id="LebVT-fsiNY8ZmQKpkG3-56" value="&lt;span style=&quot;color: rgb(0, 0, 0); font-family: Helvetica; font-size: 11px; font-style: normal; font-variant-ligatures: normal; font-variant-caps: normal; font-weight: 400; letter-spacing: normal; orphans: 2; text-align: center; text-indent: 0px; text-transform: none; widows: 2; word-spacing: 0px; -webkit-text-stroke-width: 0px; background-color: rgb(251, 251, 251); text-decoration-thickness: initial; text-decoration-style: initial; text-decoration-color: initial; float: none; display: inline !important;&quot;&gt;No&lt;/span&gt;" style="text;whiteSpace=wrap;html=1;" parent="WIyWlLk6GJQsqaUBKTNV-1" vertex="1">
          <mxGeometry x="703.91" y="970" width="50" height="40" as="geometry" />
        </mxCell>
        <mxCell id="LebVT-fsiNY8ZmQKpkG3-57" value="&lt;span style=&quot;color: rgb(0, 0, 0); font-family: Helvetica; font-size: 11px; font-style: normal; font-variant-ligatures: normal; font-variant-caps: normal; font-weight: 400; letter-spacing: normal; orphans: 2; text-align: center; text-indent: 0px; text-transform: none; widows: 2; word-spacing: 0px; -webkit-text-stroke-width: 0px; background-color: rgb(251, 251, 251); text-decoration-thickness: initial; text-decoration-style: initial; text-decoration-color: initial; float: none; display: inline !important;&quot;&gt;No&lt;/span&gt;" style="text;whiteSpace=wrap;html=1;" parent="WIyWlLk6GJQsqaUBKTNV-1" vertex="1">
          <mxGeometry x="783.91" y="470" width="50" height="40" as="geometry" />
        </mxCell>
        <mxCell id="LebVT-fsiNY8ZmQKpkG3-81" value="" style="edgeStyle=orthogonalEdgeStyle;rounded=0;orthogonalLoop=1;jettySize=auto;html=1;exitX=1;exitY=0.5;exitDx=0;exitDy=0;" parent="WIyWlLk6GJQsqaUBKTNV-1" source="LebVT-fsiNY8ZmQKpkG3-40" target="LebVT-fsiNY8ZmQKpkG3-80" edge="1">
          <mxGeometry relative="1" as="geometry">
            <mxPoint x="983.91" y="1130" as="targetPoint" />
            <mxPoint x="768.91" y="495" as="sourcePoint" />
            <Array as="points">
              <mxPoint x="975" y="495" />
              <mxPoint x="975" y="1120" />
              <mxPoint x="284" y="1120" />
            </Array>
          </mxGeometry>
        </mxCell>
        <mxCell id="LebVT-fsiNY8ZmQKpkG3-82" style="edgeStyle=orthogonalEdgeStyle;rounded=0;orthogonalLoop=1;jettySize=auto;html=1;exitX=0.5;exitY=1;exitDx=0;exitDy=0;" parent="WIyWlLk6GJQsqaUBKTNV-1" source="LebVT-fsiNY8ZmQKpkG3-80" edge="1">
          <mxGeometry relative="1" as="geometry">
            <mxPoint x="284" y="1310" as="targetPoint" />
          </mxGeometry>
        </mxCell>
        <mxCell id="LebVT-fsiNY8ZmQKpkG3-80" value="Append ripartition, MSE1, mean(MSE1), var(MSE1), alpha1, seed1, MSE2, mean(MSE2), var(MSE2), alpha2, seed2 &lt;br&gt;to results list" style="rounded=1;whiteSpace=wrap;html=1;absoluteArcSize=1;arcSize=14;strokeWidth=2;" parent="WIyWlLk6GJQsqaUBKTNV-1" vertex="1">
          <mxGeometry x="198.91" y="1150" width="170" height="110" as="geometry" />
        </mxCell>
        <mxCell id="LebVT-fsiNY8ZmQKpkG3-84" style="edgeStyle=orthogonalEdgeStyle;rounded=0;orthogonalLoop=1;jettySize=auto;html=1;exitX=0.5;exitY=1;exitDx=0;exitDy=0;" parent="WIyWlLk6GJQsqaUBKTNV-1" source="LebVT-fsiNY8ZmQKpkG3-83" edge="1">
          <mxGeometry relative="1" as="geometry">
            <mxPoint x="283.5925925925925" y="1400" as="targetPoint" />
          </mxGeometry>
        </mxCell>
        <mxCell id="LebVT-fsiNY8ZmQKpkG3-83" value="Plot &quot;predicted vs actual&quot; for both the models and current ripartition" style="rounded=1;whiteSpace=wrap;html=1;absoluteArcSize=1;arcSize=14;strokeWidth=2;" parent="WIyWlLk6GJQsqaUBKTNV-1" vertex="1">
          <mxGeometry x="197.82" y="1310" width="171.09" height="70" as="geometry" />
        </mxCell>
        <mxCell id="LebVT-fsiNY8ZmQKpkG3-86" style="edgeStyle=orthogonalEdgeStyle;rounded=0;orthogonalLoop=1;jettySize=auto;html=1;exitX=0.5;exitY=1;exitDx=0;exitDy=0;entryX=1;entryY=0.5;entryDx=0;entryDy=0;" parent="WIyWlLk6GJQsqaUBKTNV-1" source="LebVT-fsiNY8ZmQKpkG3-85" target="WIyWlLk6GJQsqaUBKTNV-6" edge="1">
          <mxGeometry relative="1" as="geometry">
            <Array as="points">
              <mxPoint x="284" y="1450" />
              <mxPoint x="1090" y="1450" />
              <mxPoint x="1090" y="310" />
            </Array>
          </mxGeometry>
        </mxCell>
        <mxCell id="LebVT-fsiNY8ZmQKpkG3-85" value="Get next ripartition" style="rounded=1;whiteSpace=wrap;html=1;absoluteArcSize=1;arcSize=14;strokeWidth=2;" parent="WIyWlLk6GJQsqaUBKTNV-1" vertex="1">
          <mxGeometry x="202.82" y="1400" width="162.18" height="30" as="geometry" />
        </mxCell>
        <mxCell id="LebVT-fsiNY8ZmQKpkG3-89" style="edgeStyle=orthogonalEdgeStyle;rounded=0;orthogonalLoop=1;jettySize=auto;html=1;exitX=1;exitY=0.5;exitDx=0;exitDy=0;entryX=0;entryY=0.5;entryDx=0;entryDy=0;entryPerimeter=0;" parent="WIyWlLk6GJQsqaUBKTNV-1" source="LebVT-fsiNY8ZmQKpkG3-88" target="LebVT-fsiNY8ZmQKpkG3-90" edge="1">
          <mxGeometry relative="1" as="geometry">
            <mxPoint x="410" y="1604.75" as="targetPoint" />
          </mxGeometry>
        </mxCell>
        <mxCell id="LebVT-fsiNY8ZmQKpkG3-88" value="Show table with all results" style="rounded=1;whiteSpace=wrap;html=1;absoluteArcSize=1;arcSize=14;strokeWidth=2;" parent="WIyWlLk6GJQsqaUBKTNV-1" vertex="1">
          <mxGeometry x="140" y="1570" width="171.09" height="70" as="geometry" />
        </mxCell>
        <mxCell id="LebVT-fsiNY8ZmQKpkG3-90" value="END" style="strokeWidth=2;html=1;shape=mxgraph.flowchart.terminator;whiteSpace=wrap;" parent="WIyWlLk6GJQsqaUBKTNV-1" vertex="1">
          <mxGeometry x="413.91" y="1575" width="100" height="60" as="geometry" />
        </mxCell>
        <mxCell id="LebVT-fsiNY8ZmQKpkG3-91" value="&lt;span style=&quot;color: rgb(0, 0, 0); font-family: Helvetica; font-size: 11px; font-style: normal; font-variant-ligatures: normal; font-variant-caps: normal; font-weight: 400; letter-spacing: normal; orphans: 2; text-align: center; text-indent: 0px; text-transform: none; widows: 2; word-spacing: 0px; -webkit-text-stroke-width: 0px; background-color: rgb(251, 251, 251); text-decoration-thickness: initial; text-decoration-style: initial; text-decoration-color: initial; float: none; display: inline !important;&quot;&gt;No&lt;/span&gt;" style="text;whiteSpace=wrap;html=1;" parent="WIyWlLk6GJQsqaUBKTNV-1" vertex="1">
          <mxGeometry x="246.40999999999997" y="280" width="50" height="40" as="geometry" />
        </mxCell>
        <mxCell id="LebVT-fsiNY8ZmQKpkG3-92" value="&lt;font style=&quot;font-size: 36px;&quot;&gt;FLOWCHART FOR RIDGE, LASSO, ELASTIC NET&lt;/font&gt;" style="text;html=1;strokeColor=none;fillColor=none;align=center;verticalAlign=middle;whiteSpace=wrap;rounded=0;" parent="WIyWlLk6GJQsqaUBKTNV-1" vertex="1">
          <mxGeometry x="162" y="10" width="845" height="40" as="geometry" />
        </mxCell>
        <mxCell id="nP6RlZrr9xRuI3rNWLar-0" value="&lt;span style=&quot;color: rgb(0, 0, 0); font-family: Helvetica; font-size: 12px; font-style: normal; font-variant-ligatures: normal; font-variant-caps: normal; font-weight: 400; letter-spacing: normal; orphans: 2; text-align: center; text-indent: 0px; text-transform: none; widows: 2; word-spacing: 0px; -webkit-text-stroke-width: 0px; background-color: rgb(251, 251, 251); text-decoration-thickness: initial; text-decoration-style: initial; text-decoration-color: initial; float: none; display: inline !important;&quot;&gt;Set ripartitions and seeds list&lt;/span&gt;&lt;br style=&quot;border-color: var(--border-color); color: rgb(0, 0, 0); font-family: Helvetica; font-size: 12px; font-style: normal; font-variant-ligatures: normal; font-variant-caps: normal; font-weight: 400; letter-spacing: normal; orphans: 2; text-align: center; text-indent: 0px; text-transform: none; widows: 2; word-spacing: 0px; -webkit-text-stroke-width: 0px; background-color: rgb(251, 251, 251); text-decoration-thickness: initial; text-decoration-style: initial; text-decoration-color: initial;&quot;&gt;&lt;span style=&quot;color: rgb(0, 0, 0); font-family: Helvetica; font-size: 12px; font-style: normal; font-variant-ligatures: normal; font-variant-caps: normal; font-weight: 400; letter-spacing: normal; orphans: 2; text-align: center; text-indent: 0px; text-transform: none; widows: 2; word-spacing: 0px; -webkit-text-stroke-width: 0px; background-color: rgb(251, 251, 251); text-decoration-thickness: initial; text-decoration-style: initial; text-decoration-color: initial; float: none; display: inline !important;&quot;&gt;Create results list&lt;/span&gt;&lt;br style=&quot;border-color: var(--border-color); color: rgb(0, 0, 0); font-family: Helvetica; font-size: 12px; font-style: normal; font-variant-ligatures: normal; font-variant-caps: normal; font-weight: 400; letter-spacing: normal; orphans: 2; text-align: center; text-indent: 0px; text-transform: none; widows: 2; word-spacing: 0px; -webkit-text-stroke-width: 0px; background-color: rgb(251, 251, 251); text-decoration-thickness: initial; text-decoration-style: initial; text-decoration-color: initial;&quot;&gt;&lt;span style=&quot;color: rgb(0, 0, 0); font-family: Helvetica; font-size: 12px; font-style: normal; font-variant-ligatures: normal; font-variant-caps: normal; font-weight: 400; letter-spacing: normal; orphans: 2; text-align: center; text-indent: 0px; text-transform: none; widows: 2; word-spacing: 0px; -webkit-text-stroke-width: 0px; background-color: rgb(251, 251, 251); text-decoration-thickness: initial; text-decoration-style: initial; text-decoration-color: initial; float: none; display: inline !important;&quot;&gt;trials = 100&lt;/span&gt;" style="strokeWidth=2;html=1;shape=mxgraph.flowchart.start_1;whiteSpace=wrap;" parent="WIyWlLk6GJQsqaUBKTNV-1" vertex="1">
          <mxGeometry x="235.91000000000003" y="70" width="186" height="80" as="geometry" />
        </mxCell>
      </root>
    </mxGraphModel>
  </diagram>
</mxfile>
